<svg xmlns="http://www.w3.org/2000/svg" viewBox="0 0 72 90" x="0px" y="0px"><title>line</title><g data-name="Layer 25"><path d="M60,5a6,6,0,1,0,6,6A6.00657,6.00657,0,0,0,60,5Zm0,10a4,4,0,1,1,4-4A4.00427,4.00427,0,0,1,60,15Z"/><path d="M59.26318,19.16113a4.99729,4.99729,0,0,0-6.10156,3.57715L48.96045,38.84277,38.832,31.87891a5.00018,5.00018,0,0,0-7.3042,1.88476l-13,26a5.00741,5.00741,0,0,0,2.23633,6.709,5.00115,5.00115,0,0,0,6.708-2.23633L37.90234,43.375,49.167,51.11914a4.99922,4.99922,0,0,0,7.67139-2.85742l6-23A5.008,5.008,0,0,0,59.26318,19.16113Zm1.63965,5.59668-6,23a2.9997,2.9997,0,0,1-4.60254,1.71289L38.08838,41.07617a1.01792,1.01792,0,0,0-.81641-.14453,1.00124,1.00124,0,0,0-.64453.52149L25.68311,63.3418a2.99992,2.99992,0,1,1-5.36622-2.6836l13-26a3.00294,3.00294,0,0,1,4.38282-1.13086L49.002,41.29883a.99959.99959,0,0,0,1.53418-.57227l4.561-17.48437a3.00012,3.00012,0,1,1,5.80566,1.51562Z"/><path d="M18,14h7a5,5,0,1,0-5-5,1,1,0,0,0,2,0,3,3,0,1,1,3,3H18a1,1,0,0,0,0,2Z"/><path d="M13,18H38a5,5,0,1,0-5-5,1,1,0,0,0,2,0,3,3,0,1,1,3,3H13a1,1,0,0,0,0,2Z"/><path d="M15,41a5,5,0,0,0,0-10,1,1,0,0,0,0,2,3,3,0,1,1-3,3V27a1,1,0,0,0-2,0v9A5.00588,5.00588,0,0,0,15,41Z"/><path d="M11,44a1,1,0,0,0,0,2,3,3,0,1,1-3,3V23a1,1,0,0,0-2,0V49a5,5,0,1,0,5-5Z"/></g><text x="0" y="87" fill="#000000" font-size="5px" font-weight="bold" font-family="'Helvetica Neue', Helvetica, Arial-Unicode, Arial, Sans-serif">Created by I Putu Dicky Adi Pranatha</text><text x="0" y="92" fill="#000000" font-size="5px" font-weight="bold" font-family="'Helvetica Neue', Helvetica, Arial-Unicode, Arial, Sans-serif">from the Noun Project</text></svg>