<svg xmlns="http://www.w3.org/2000/svg" xmlns:xlink="http://www.w3.org/1999/xlink" version="1.1" x="0px" y="0px" viewBox="0 0 100 125" style="enable-background:new 0 0 100 100;" xml:space="preserve"><style type="text/css">
	.st0{fill:#FFFFFF;stroke:#000000;stroke-width:8;stroke-linecap:round;stroke-linejoin:round;stroke-miterlimit:10;}
	.st1{fill:#FFFFFF;stroke:#000000;stroke-width:6;stroke-linecap:round;stroke-linejoin:round;stroke-miterlimit:10;}
	.st2{fill:none;stroke:#000000;stroke-width:3;stroke-miterlimit:10;}
	.st3{fill:none;stroke:#000000;stroke-width:3;stroke-linecap:round;stroke-miterlimit:10;}
	.st4{fill:none;stroke:#000000;stroke-width:3;stroke-linecap:round;stroke-linejoin:round;stroke-miterlimit:10;}
	.st5{stroke:#000000;stroke-width:3;stroke-linecap:round;stroke-linejoin:round;stroke-miterlimit:10;}
	.st6{fill:none;stroke:#000000;stroke-width:3;stroke-linecap:round;stroke-linejoin:round;}
	.st7{fill:none;stroke:#000000;stroke-width:3;stroke-linecap:round;stroke-linejoin:round;stroke-dasharray:3.5833,3.5833;}
	
		.st8{fill:none;stroke:#000000;stroke-width:3;stroke-linecap:round;stroke-linejoin:round;stroke-miterlimit:10;stroke-dasharray:3,4;}
	.st9{fill:none;stroke:#000000;stroke-width:2;stroke-linecap:round;stroke-linejoin:round;stroke-miterlimit:10;}
	.st10{fill:none;stroke:#000000;stroke-width:2;stroke-miterlimit:10;}
</style><g><path d="M72.6,19.8H27.4c-4.7,0-8.6,3.8-8.6,8.6v24.8c0,4.7,3.8,8.6,8.6,8.6h6c-1.3,4.2-0.1,6.5,1.3,8.5c0.2,0.2,0.3,0.5,0.5,0.7   c1.1,1.9,1.6,4.5,1.3,5.2c-0.7,1.4-0.1,3.1,1.3,3.8c0.4,0.2,0.8,0.3,1.2,0.3c1.1,0,2.1-0.6,2.6-1.6c1.5-3.1-0.1-8-1.5-10.5   c-0.2-0.4-0.5-0.8-0.8-1.2c-0.8-1.1-1.4-2,0.1-5.3h8.6c-1.3,4.2-0.1,6.5,1.3,8.5c0.2,0.2,0.3,0.5,0.5,0.7c1.1,1.9,1.6,4.5,1.3,5.2   c-0.7,1.4-0.1,3.1,1.3,3.8c0.4,0.2,0.8,0.3,1.2,0.3c1.1,0,2.1-0.6,2.6-1.6c1.6-3.4-0.3-8.3-1.5-10.5c-0.2-0.4-0.5-0.8-0.8-1.2   c-0.8-1.1-1.4-2,0.1-5.3h8.6c-1.3,4.2-0.1,6.5,1.3,8.5c0.2,0.2,0.3,0.5,0.5,0.7c1.1,1.9,1.6,4.5,1.3,5.2c-0.7,1.4-0.1,3.1,1.3,3.8   c0.4,0.2,0.8,0.3,1.2,0.3c1.1,0,2.1-0.6,2.6-1.6c1.6-3.4-0.3-8.3-1.5-10.5c-0.2-0.4-0.5-0.8-0.8-1.2c-0.8-1.1-1.4-2,0.1-5.3h3.9   c4.7,0,8.6-3.8,8.6-8.6V28.3C81.2,23.6,77.3,19.8,72.6,19.8z M75.5,53.1c0,1.6-1.3,2.9-2.9,2.9H71c0.8-4.5-1-8.1-2.7-10.1l3.3-2   L57.7,34l2.6,16.8l3.1-1.9c0.1,0.1,0.2,0.3,0.4,0.4c0.1,0.1,2.8,2.5,1.4,6.6h-8.7c0.8-4.5-1-8.1-2.7-10.1l3.3-2L43,34l2.6,16.8   l3.1-1.9c0.1,0.1,0.2,0.3,0.4,0.4c0.1,0.1,2.8,2.5,1.4,6.6h-8.7c0.8-4.5-1-8.1-2.7-10.1l3.3-2L28.4,34L31,50.9l3.1-1.9   c0.1,0.1,0.2,0.3,0.4,0.4c0.1,0.1,2.8,2.5,1.4,6.6h-8.5c-1.6,0-2.9-1.3-2.9-2.9V28.3c0-1.6,1.3-2.9,2.9-2.9h45.2   c1.6,0,2.9,1.3,2.9,2.9V53.1z"/></g><text x="0" y="115" fill="#000000" font-size="5px" font-weight="bold" font-family="'Helvetica Neue', Helvetica, Arial-Unicode, Arial, Sans-serif">Created by naim</text><text x="0" y="120" fill="#000000" font-size="5px" font-weight="bold" font-family="'Helvetica Neue', Helvetica, Arial-Unicode, Arial, Sans-serif">from the Noun Project</text></svg>