<svg xmlns="http://www.w3.org/2000/svg" version="1.1" viewBox="-5.0 -10.0 110.0 135.0">
 <path d="m52 29v-14c0-1.1836-0.69141-2.2578-1.7734-2.7422-1.082-0.48437-2.3438-0.28516-3.2266 0.50391l-34 30.34c-0.63672 0.5625-1.0039 1.375-1.0039 2.2266 0 0.85547 0.36719 1.668 1.0039 2.2305l33.922 30.441c0.88672 0.85938 2.2148 1.0859 3.3398 0.57031 1.125-0.51953 1.8125-1.6758 1.7383-2.9102v-13.898c10.262 0.85938 23.34 7.6602 30 24.359 0.45703 1.1328 1.5586 1.8789 2.7812 1.8789h0.44141-0.003906c1.3828-0.19531 2.4414-1.3281 2.543-2.7188 2.1172-26.02-8.1211-53.402-35.762-56.281zm-0.26172 26.719-2.5586-0.16016h-0.17969c-0.74609 0.011718-1.4609 0.30469-2 0.82031-0.62109 0.55859-0.98438 1.3477-1 2.1797v10.398l-26.5-23.617 26.5-23.641v10c0.003906 1.5469 1.1797 2.8359 2.7188 2.9805l2.2383 0.19922c20 1.8789 29.48 19.199 30.922 38.379v0.003907c-6.9062-10.113-18.012-16.562-30.219-17.543z"/>
<text x="0.0" y="117.5" font-size="5.0" font-weight="bold" font-family="Arbeit Regular, Helvetica, Arial-Unicode, Arial, Sans-serif" fill="#000000">Created by ridhobadal</text><text x="0.0" y="122.5" font-size="5.0" font-weight="bold" font-family="Arbeit Regular, Helvetica, Arial-Unicode, Arial, Sans-serif" fill="#000000">from Noun Project</text></svg>